<?xml version="1.0" standalone="no"?>
<!DOCTYPE svg PUBLIC "-//W3C//DTD SVG 20010904//EN"
 "http://www.w3.org/TR/2001/REC-SVG-20010904/DTD/svg10.dtd">
<svg version="1.0" xmlns="http://www.w3.org/2000/svg"
 width="250.000000pt" height="auto" viewBox="0 0 900.000000 152.000000"
 preserveAspectRatio="xMidYMid meet">

<g transform="translate(0.000000,152.000000) scale(0.100000,-0.100000)"
fill="#fff495" stroke="none">
<path d="M135 1456 c-41 -18 -96 -66 -89 -77 3 -5 23 -9 44 -9 72 0 70 13 70
-490 l0 -446 43 -21 c75 -37 120 -47 207 -48 75 0 93 4 152 32 85 40 151 106
191 191 31 64 32 72 32 192 0 143 -14 185 -82 261 -92 102 -253 115 -370 30
l-41 -30 -4 195 c-3 192 -3 196 -27 215 -27 22 -82 24 -126 5z m377 -446 c53
-15 92 -52 119 -112 33 -77 34 -231 1 -303 -29 -63 -75 -111 -120 -126 -55
-18 -134 -13 -181 10 l-41 22 2 226 3 226 26 19 c31 23 95 47 129 48 14 0 42
-5 62 -10z"/>
<path d="M1923 1308 c-6 -7 -14 -31 -18 -52 -15 -87 -70 -161 -132 -180 -25
-8 -30 -35 -11 -54 7 -7 29 -12 50 -12 l38 0 1 -267 c0 -288 5 -322 50 -355
32 -24 121 -34 176 -19 59 16 137 71 141 100 6 38 -11 46 -58 27 -59 -23 -146
-22 -160 3 -6 12 -10 115 -10 264 l0 243 85 -4 c105 -6 135 9 135 63 l0 35
-110 0 -110 0 0 98 c0 100 -7 122 -41 122 -9 0 -21 -6 -26 -12z"/>
<path d="M2471 1298 c-5 -13 -12 -39 -16 -58 -16 -77 -66 -142 -122 -161 -35
-11 -39 -19 -23 -50 8 -14 21 -19 49 -19 l39 0 3 -277 c4 -258 5 -280 24 -313
38 -64 162 -77 261 -27 69 35 102 78 84 108 -7 11 -17 11 -57 -4 -26 -9 -69
-17 -95 -17 -77 0 -78 4 -78 285 l0 241 85 -4 c105 -6 135 9 135 63 l0 35
-111 0 -110 0 2 94 c3 100 -6 126 -42 126 -11 0 -23 -10 -28 -22z"/>
<path d="M968 1110 c-42 -23 -80 -67 -76 -89 2 -11 15 -16 38 -16 l35 0 5
-255 c6 -270 11 -301 60 -345 26 -23 88 -44 133 -45 51 0 148 34 213 75 l52
34 9 -36 c5 -21 20 -45 35 -56 25 -19 32 -19 81 -8 63 14 127 54 127 80 0 26
-8 30 -41 18 -25 -10 -32 -8 -52 11 -22 22 -22 28 -27 316 -5 271 -6 296 -24
315 -24 26 -58 26 -116 0 -58 -26 -90 -57 -90 -86 0 -22 3 -23 33 -18 64 12
67 2 67 -240 l0 -214 -66 -32 c-67 -33 -149 -47 -198 -35 -49 12 -54 40 -58
321 -3 261 -8 294 -42 317 -19 13 -60 8 -98 -12z"/>
<path d="M3165 1116 c-111 -35 -206 -121 -247 -224 -19 -49 -23 -75 -23 -182
0 -106 3 -132 21 -171 31 -66 78 -114 142 -146 50 -24 68 -28 147 -28 77 0 99
5 152 29 69 32 117 75 111 103 -4 21 -26 21 -87 -2 -62 -23 -157 -30 -211 -15
-85 23 -144 108 -152 220 l-3 35 210 3 c116 1 220 4 233 7 33 8 42 42 32 124
-18 141 -82 229 -182 250 -62 14 -93 13 -143 -3z m126 -99 c29 -18 59 -87 59
-139 l0 -45 -47 -6 c-27 -3 -101 -9 -167 -13 l-119 -7 7 39 c11 56 39 115 69
142 52 49 145 62 198 29z"/>
<path d="M3730 1114 c-59 -25 -100 -63 -100 -90 0 -23 3 -24 33 -19 65 13 67
6 67 -284 0 -277 -1 -281 -53 -281 -24 0 -28 -4 -25 -22 5 -40 41 -48 193 -45
l140 2 0 25 c0 20 -7 26 -45 37 -76 22 -75 17 -78 257 -2 203 -1 214 19 240
42 53 156 91 192 64 12 -9 20 -32 24 -71 6 -55 7 -58 31 -55 41 5 64 47 70
127 4 55 1 76 -12 95 -36 55 -134 40 -253 -40 -36 -24 -67 -44 -69 -44 -2 0
-4 14 -4 31 0 32 -15 69 -34 81 -17 12 -58 9 -96 -8z"/>
<path d="M4294 1116 c-56 -25 -80 -86 -33 -86 29 0 48 -39 154 -318 94 -248
118 -295 156 -307 15 -5 14 -14 -19 -87 -41 -91 -97 -158 -131 -158 -12 0 -34
12 -48 26 -25 25 -29 26 -52 13 -36 -20 -41 -82 -10 -115 54 -58 159 -36 235
50 104 117 404 807 404 929 0 30 -45 67 -82 67 -65 0 -138 -32 -138 -60 0 -4
13 -13 30 -20 66 -27 56 -118 -40 -350 -28 -69 -58 -142 -67 -162 -8 -21 -18
-38 -22 -38 -3 0 -51 132 -106 293 -64 186 -108 300 -122 315 -25 25 -63 28
-109 8z"/>
</g>
</svg>
